<svg id="Layer_1" data-name="Layer 1" xmlns="http://www.w3.org/2000/svg" viewBox="0 0 205.89 19.18"><defs><style>.cls-1,.cls-2{fill:#fff;}.cls-1{fill-rule:evenodd;}</style></defs><title>fidelity-life-association-logo</title><path class="cls-1" d="M19.51,6A9.59,9.59,0,0,1,8.9,21.54h0c2.1-.45,3.11-2.91,3.76-5.33,0,0,.78-2.66.78-2.66h2.15L16.06,12H13.92a31.25,31.25,0,0,1,1.83-5.4A2,2,0,0,1,17.51,5.2a2.74,2.74,0,0,1,2,.77" transform="translate(-3.14 -3.16)"/><path class="cls-1" d="M6,19.53A9.59,9.59,0,0,1,16.56,4h0c-2.1.45-3.11,2.91-3.76,5.33,0,0-.78,2.66-0.78,2.66H9.87L9.4,13.55h2.14a31.25,31.25,0,0,1-1.83,5.4A2,2,0,0,1,7.95,20.3a2.74,2.74,0,0,1-2-.77" transform="translate(-3.14 -3.16)"/><polyline class="cls-2" points="33.69 5.08 33.69 8.04 39.38 8.04 39.38 11.38 33.69 11.38 33.69 17.68 28.64 17.68 28.64 1.5 40.63 1.5 40.63 5.08 33.69 5.08"/><rect class="cls-2" x="44.68" y="1.5" width="5.05" height="16.18"/><path class="cls-2" d="M65.38,20.84h-7V4.66h7c5,0,9,2.43,9,8s-4,8.14-9,8.14M65.08,8.34H63.61v8.83h1.47c2.67,0,4-1.27,4-4.51S67.61,8.34,65.08,8.34Z" transform="translate(-3.14 -3.16)"/><polyline class="cls-2" points="75.58 17.68 75.58 1.5 87.4 1.5 87.4 5.08 80.63 5.08 80.63 7.77 86.17 7.77 86.17 11.11 80.63 11.11 80.63 14.1 87.72 14.1 87.72 17.68 75.58 17.68"/><polyline class="cls-2" points="92.11 17.68 92.11 1.5 97.16 1.5 97.16 14.1 103.29 14.1 103.29 17.68 92.11 17.68"/><rect class="cls-2" x="107.48" y="1.5" width="5.05" height="16.18"/><polyline class="cls-2" points="126.14 5.08 126.14 17.68 121.09 17.68 121.09 5.08 116.48 5.08 116.48 1.5 130.75 1.5 130.75 5.08 126.14 5.08"/><polyline class="cls-2" points="143.14 10.77 143.14 17.68 138.09 17.68 138.09 10.74 132.79 1.5 138.23 1.5 140.78 6.62 143.46 1.5 148.95 1.5 143.14 10.77"/><polyline class="cls-2" points="151.52 17.68 151.52 1.5 156.58 1.5 156.58 14.1 162.71 14.1 162.71 17.68 151.52 17.68"/><rect class="cls-2" x="166.9" y="1.5" width="5.05" height="16.18"/><polyline class="cls-2" points="182.69 5.08 182.69 8.04 188.38 8.04 188.38 11.38 182.69 11.38 182.69 17.68 177.64 17.68 177.64 1.5 189.63 1.5 189.63 5.08 182.69 5.08"/><polyline class="cls-2" points="193.75 17.68 193.75 1.5 205.57 1.5 205.57 5.08 198.8 5.08 198.8 7.77 204.35 7.77 204.35 11.11 198.8 11.11 198.8 14.1 205.89 14.1 205.89 17.68 193.75 17.68"/></svg>