<?xml version="1.0" encoding="utf-8"?><!DOCTYPE svg PUBLIC "-//W3C//DTD SVG 1.1//EN" "http://www.w3.org/Graphics/SVG/1.1/DTD/svg11.dtd"><svg version="1.1" xmlns="http://www.w3.org/2000/svg" xmlns:xlink="http://www.w3.org/1999/xlink" x="0px" y="0px" width="222px" height="48px" viewBox="0 0 222 48" style="enable-background:new 0 0 222 48;" xml:space="preserve"><style>#head *,#reg *,#moo-text *{fill:#FFFFFF;}#medallion *{fill:none;}@media print{#medallion *,#reg *,#moo-text *{fill:#003A70;}}</style><g id="moo-text"><polygon points="123.326,27.111 123.326,20.251 119.046,20.251 119.046,27.111 119.046,34.123 127.611,34.123 127.611,32.452 123.326,32.452"/><polygon points="84.508,22.02 87.484,22.114 87.484,27.111 87.484,34.123 91.766,34.123 91.766,27.111 91.766,22.02 94.842,22.02 94.842,20.251 84.508,20.251"/><path d="M79.758,27.111v5.891c-1.209,0.098-2.232-0.195-2.232-1.299v-4.592v-6.86h-4.002v6.86v2.824v1.02 c0,1.583,0.75,2.365,1.673,2.795c0.493,0.23,1.025,0.373,1.487,0.373h7.17V33.75v-6.639v-6.86h-4.095L79.758,27.111L79.758,27.111z"/><path d="M115.412,20.251h-7.632v1.303h4.656c0.371,0,0.65,0.279,0.836,0.56c0.279,0.552,0.186,1.3,0.186,1.3v3.699 v5.889c-1.211,0.098-1.954,0-2.046-1.297v-4.591v-2.672h-2.143c-1.112,0.003-2.048,1.056-2.048,2.393v0.278v2.824v1.111 c0,1.403,0.47,2.235,1.212,2.702c0.373,0.281,0.837,0.373,1.305,0.373h7.82V33.75v-6.639v-4.351v-0.648 C117.555,21.192,116.623,20.251,115.412,20.251z"/><path d="M101.632,27.111v5.886c-1.207,0.094-2.231-0.197-2.231-1.3v-4.586v-6.863h-4.003v6.863v2.815v1.023 c0,1.582,0.75,2.366,1.674,2.793c0.493,0.229,1.025,0.373,1.488,0.373h7.17v-0.371v-6.634v-6.864h-4.097L101.632,27.111 L101.632,27.111z"/><path d="M215.675,20.248h-7.632v1.302h4.652c0.371,0,0.648,0.282,0.84,0.561c0.277,0.552,0.186,1.3,0.186,1.3v3.703 v5.889c-1.211,0.09-1.953,0-2.05-1.301v-4.587V24.44h-2.142c-1.108,0.001-2.045,1.056-2.045,2.39v0.284v2.817v1.112 c0,1.403,0.467,2.236,1.214,2.705c0.37,0.278,0.831,0.371,1.3,0.371h7.82v-0.371v-6.635v-4.356v-0.646 C217.814,21.188,216.887,20.248,215.675,20.248z"/><path d="M192.492,20.25h-7.635v1.3h4.654c0.371,0,0.653,0.282,0.838,0.562c0.279,0.552,0.187,1.298,0.187,1.298v3.703 v5.889c-1.212,0.094-1.953,0-2.047-1.301v-4.587V24.44h-2.14c-1.113,0.001-2.049,1.057-2.049,2.39v0.284v2.817v1.113 c0,1.4,0.465,2.238,1.211,2.705c0.372,0.279,0.838,0.369,1.305,0.369h7.818V33.75v-6.637v-4.356v-0.644 C194.633,21.188,193.702,20.25,192.492,20.25z"/><polygon points="202.085,22.114 202.085,26.023 202.085,26.58 200.038,26.58 200.038,26.023 200.038,22.114 200.038,20.251 196.129,20.251 196.129,22.114 196.129,26.023 196.129,27.111 196.129,29.938 196.129,33.75 196.129,34.123 200.038,34.123 200.038,33.75 200.038,29.938 200.038,28.261 202.085,28.261 202.085,29.938 202.085,33.75 202.085,34.123 205.998,34.123 205.998,33.75 205.998,29.938 205.998,27.111 205.998,26.023 205.998,22.114 205.998,20.251 202.085,20.251"/><path d="M179.889,20.251h-14.205v2.694v4.167v7.01h4.276v-7.01v-4.167v-1.392c1.213,0,2.049,0.279,2.049,1.392v4.167 v7.01h4.38v-0.373v-6.637v-4.167v-1.392c1.209,0,2.047,0.279,2.047,1.392v4.167v7.01h4.371v-7.01v-4.274 C182.807,21.721,181.379,20.251,179.889,20.251z"/><path d="M164.477,20.251c-0.065-0.228-0.131-0.47-0.199-0.705v-0.005c-0.129-0.445-0.271-0.887-0.454-1.244 c-1.483-3.631-4.562-5.31-8.749-5.31c-4.562-0.094-7.54,2.14-8.938,5.31c-0.166,0.412-0.334,0.827-0.435,1.245H145.7 c-0.011,0.05-0.022,0.099-0.031,0.148c-0.188,0.749-0.28,1.582-0.369,2.423c-0.185,1.3-0.185,2.694-0.094,3.911 c0.051,0.371,0.106,0.734,0.17,1.088h0.001c0.152,0.863,0.346,1.638,0.622,2.263c0.076,0.176,0.138,0.373,0.229,0.562 c1.113,1.955,2.424,3.16,4.004,3.814c1.49,0.654,3.068,0.928,4.933,0.832c1.586,0,2.976-0.279,4.188-0.832 c1.467-0.672,2.771-1.549,3.726-2.702c0.298-0.358,0.464-0.741,0.651-1.112c0.345-0.832,0.588-1.81,0.769-2.824v-0.002 c0.063-0.358,0.118-0.724,0.169-1.086c0.09-1.309,0.09-2.704,0-3.911C164.666,21.46,164.568,20.806,164.477,20.251z M159.534,27.114c-0.017,0.989-0.071,1.928-0.275,2.821c-0.462,2.047-1.581,3.533-4.187,3.533c-2.793,0-4.004-1.393-4.469-3.533 c-0.141-0.842-0.228-1.783-0.262-2.824v-0.004c-0.01-0.352-0.017-0.713-0.017-1.084v-2.236v-1.674c0-0.904,0-1.766,0.049-2.565 c0.026-0.438,0.071-0.857,0.136-1.251c0.28-2.517,1.305-4.002,4.562-4.002c2.883,0,3.912,1.673,4.279,4.002 c0.065,0.386,0.106,0.806,0.137,1.249v0.004c0.05,0.812,0.052,1.71,0.052,2.659v1.579v2.235 C159.54,26.393,159.54,26.757,159.534,27.114L159.534,27.114L159.534,27.114z"/><polygon points="65.227,19.546 63.334,27.111 63.188,27.701 63.025,27.111 60.935,19.546 59.278,13.549 53.692,13.549 53.692,19.546 53.692,27.111 53.692,34.123 55.646,34.123 55.646,27.111 55.646,19.546 55.646,17.83 56.117,19.546 58.191,27.111 60.112,34.123 63.372,34.123 65.177,27.111 67.122,19.546 67.563,17.83 67.563,19.546 67.563,27.111 67.563,34.123 72.032,34.123 72.032,27.111 72.032,19.546 72.032,13.549 66.725,13.549"/><path d="M139.441,19.542h-0.004c-0.479,0.671-0.75,1.169-0.75,1.169H133.1c-0.838-0.086-1.393-0.176-2.324,0.095 c-2.073,0.602-2.702,2.117-3.164,3.169c-0.377,0.847-0.385,1.914,0.277,2.697c0.141,0.167,0.305,0.311,0.486,0.439h0.012 c1.305,0.878,3.582,0.758,5.01,0v-0.006c0.09-0.049,0.181-0.102,0.264-0.153c1.21-0.782,2.201-2.732,1.744-4.839 c-0.021-0.101-0.069-0.186-0.069-0.281h2.789c0,0-0.092,0.095-0.185,0.281c-0.283,0.741-1.021,2.423-1.674,3.911 c-0.15,0.392-0.324,0.762-0.498,1.088v0.002c-0.154,0.293-0.306,0.553-0.436,0.771c-0.467,0.833-1.348,2.742-3.443,3.442 c-1.857,0.618-3.906-0.522-3.906-0.522l-0.098,0.99c0.334,0.169,0.473,0.247,0.62,0.307c0.181,0.075,0.375,0.117,0.964,0.252 c2.207,0.516,5.307-0.932,6.797-2.418c0.395-0.398,1.059-1,1.993-2.822v-0.008c0.165-0.321,0.339-0.683,0.521-1.084 c0.183-0.371,0.371-0.842,0.555-1.4c0.467-1.208,0.932-2.788,0.932-2.788h3.726l0.282-1.122h-3.443 c0.1-0.387,0.256-0.792,0.419-1.163h0.002c0.271-0.594,0.567-1.09,0.698-1.251c0.404-0.506,0.76-1.28,2.322-1.215v-1.02 c-1.551,0.361-2.604,1.007-3.451,1.842C140.264,18.454,139.796,19.043,139.441,19.542z M132.635,24.809 c-0.199,0.461-0.373,0.842-0.65,1.215c-0.465,0.649-1.012,1.019-1.678,0.834c-0.543-0.148-0.834-0.375-0.834-0.834 c0-0.469,0.221-1.01,0.461-1.583c0.205-0.47,1.213-2.327,1.213-2.327c0.188-0.281,0.522-0.51,0.838-0.56 c0.742-0.12,1.307,0.095,1.396,0.56C133.566,22.948,133.073,23.804,132.635,24.809z"/></g><g id="reg"><g><path d="M40.98,40.42l0.19,0.26h-0.22c-0.04-0.06-0.06-0.09-0.11-0.17c-0.1-0.14-0.23-0.34-0.23-0.34H40.5v0.51h-0.19 V39.53h0.37c0.15,0,0.25,0.04,0.31,0.09c0.06,0.05,0.11,0.12,0.11,0.229c0,0.181-0.11,0.32-0.32,0.32l0.09,0.1 C40.9,40.3,40.93,40.35,40.98,40.42z M40.85,40.01c0.04-0.04,0.06-0.09,0.06-0.149c0-0.08-0.05-0.15-0.12-0.181 c-0.04-0.01-0.09-0.01-0.16-0.01H40.5v0.39h0.12C40.74,40.06,40.8,40.05,40.85,40.01z"/><path d="M41.24,39.23c0.28,0.189,0.47,0.51,0.47,0.869c0,0.57-0.46,1.04-1.04,1.04c-0.57,0-1.04-0.47-1.04-1.04 c0-0.359,0.19-0.68,0.47-0.869c0.17-0.11,0.36-0.171,0.57-0.171S41.08,39.12,41.24,39.23z M41.51,40.1c0-0.46-0.38-0.84-0.84-0.84 c-0.47,0-0.84,0.38-0.84,0.84s0.37,0.841,0.84,0.841C41.13,40.94,41.51,40.56,41.51,40.1z"/></g><g><path d="M40.98,40.42l0.19,0.26h-0.22c-0.04-0.06-0.06-0.09-0.11-0.17c-0.1-0.14-0.23-0.34-0.23-0.34H40.5v0.51h-0.19 V39.53h0.37c0.15,0,0.25,0.04,0.31,0.09c0.06,0.05,0.11,0.12,0.11,0.229c0,0.181-0.11,0.32-0.32,0.32l0.09,0.1 C40.9,40.3,40.93,40.35,40.98,40.42z M40.85,40.01c0.04-0.04,0.06-0.09,0.06-0.149c0-0.08-0.05-0.15-0.12-0.181 c-0.04-0.01-0.09-0.01-0.16-0.01H40.5v0.39h0.12C40.74,40.06,40.8,40.05,40.85,40.01z"/><path d="M41.24,39.23c0.28,0.189,0.47,0.51,0.47,0.869c0,0.57-0.46,1.04-1.04,1.04c-0.57,0-1.04-0.47-1.04-1.04 c0-0.359,0.19-0.68,0.47-0.869c0.17-0.11,0.36-0.171,0.57-0.171S41.08,39.12,41.24,39.23z M41.51,40.1c0-0.46-0.38-0.84-0.84-0.84 c-0.47,0-0.84,0.38-0.84,0.84s0.37,0.841,0.84,0.841C41.13,40.94,41.51,40.56,41.51,40.1z"/></g></g><g id="medallion"><circle cx="23.98" cy="23.983" r="20.35"/></g><g id="head"><path d="M10.676,23.08h1.227l-0.595,1.896c0,0,0.558,0,0.779,0.446c0.188,0.335,0.112,0.634,0.112,0.634H9.747 C9.971,25.014,10.23,24.01,10.676,23.08z"/><polygon points="15.953,33.521 19.148,33.521 17.737,38.203 15.619,37.054 16.732,35.419"/><path d="M10.193,17.172h3.344c0,0,0.373,0,0.521,0.259c0,0.038,0.557,1.153,0.557,1.153h-4.421V17.172z"/><path d="M14.653,19.55c0,0,0.408-0.037,0.519,0.259c0,0.039,0.633,1.265,0.633,1.265H10.23V19.55H14.653z"/><path d="M36.799,28.395c-0.485,0.038-1.078-0.596-1.339,0.038l2.6,1.301c0,0-1.039,2.825-2.637,2.638 c-0.482-0.035-0.854-0.185-1.299-0.521c-0.188-0.147-0.409-0.221-0.669-0.036l2.154,2.193c-1.039,0.893-1.523,1.485-2.489,1.597 c-0.964,0.111-1.561-0.298-2.155-1.003c-0.148-0.186-0.333-0.147-0.444-0.111l1.114,2.488c0,0-1.114,0.522-1.449,0.634 c-0.333,0.147-0.667,0.185-1.114,0.147c-0.447-0.036-0.742-0.186-1.077-0.48c-0.372-0.337-0.557-0.747-0.706-1.229 c-0.075-0.226-0.298-0.264-0.484-0.264c0,0,0.298,1.898,0.447,2.791c-1.45,0.37-2.935-0.113-3.791-1.376 c-0.335-0.482-0.631-1.002-0.631-1.636v-4.792h-2.861c0-0.036-0.521,1.674-0.521,1.674h-8.21l-0.52-1.562l0.593-0.78l-0.372-1.301 l0.223-0.299h1.003l0.26,0.484h0.743l-0.52-1.265h-1.598v-0.816h2.081l0.444,1.188h0.856l-1.04-3.009h-0.484v-2.046h1.414 l0.223-0.483h1.968l3.456,7.027h2.824v-9.217h-0.979c0.009,0.084,0.014,0.171,0.014,0.258c0,1.301-1.078,2.378-2.379,2.378 c-1.3,0-2.377-1.077-2.377-2.378c0-1.095,0.723-1.991,1.7-2.28l-0.764-1.016c-0.207,0.282-0.539,0.473-0.898,0.473 c-0.503,0-0.913-0.331-1.059-0.767c-0.127-0.319-0.103-0.697,0.173-1.038c0.039-0.047,0.081-0.095,0.131-0.142 c0.048-0.045,0.102-0.091,0.161-0.132l-1.077-0.781c-0.78,1.335-2.118,0.295-1.896-0.41c4.125-3.418,9.066-4.755,13.898-6.503 c0.407,0.483,0.631,1.301,0.258,1.784c-0.258,0.41-0.78,0.557-0.482,1.04l2.898-1.523c0.484,0.595,0.967,1.153,1.301,1.748 c0.259,0.444,0.147,0.853-0.148,1.261c-0.186,0.299-0.706,0.522-0.522,0.968l3.012-1.486c0.743,0.928,1.743,1.894,1.412,3.122 c-0.299,0.855-0.78,0.891-1.117,1.151c-0.221,0.147-0.185,0.446-0.148,0.594c0,0,1.784-0.816,2.638-1.151 c0.519,1.113,1.562,2.157,0.856,3.678c-0.337,0.484-0.707,0.669-1.374,0.968c-0.225,0.073-0.336,0.297-0.261,0.518 c0,0,2.787-0.555,2.787-0.518c0.036,0.555,0.854,3.156-0.633,3.936c-0.707,0.446-1.337-0.073-1.487,0.671l2.678,0.262 c-0.187,0.78-0.299,1.411-0.522,2.153C38.359,27.986,37.432,28.395,36.799,28.395z"/><path d="M23.99,4.03h-0.01c-10.99,0-19.94,8.95-19.94,19.95H4.03c0,11,8.95,19.95,19.95,19.95s19.95-8.949,19.95-19.95 C43.93,12.98,34.99,4.03,23.99,4.03z M23.958,42.709c-10.355,0-18.75-8.395-18.75-18.75s8.395-18.75,18.75-18.75 s18.75,8.395,18.75,18.75S34.313,42.709,23.958,42.709z"/></g></svg>
