<svg id="Layer_1" data-name="Layer 1" xmlns="http://www.w3.org/2000/svg" xmlns:xlink="http://www.w3.org/1999/xlink" viewBox="0 0 429.9 88.8"><defs><style>.cls-1{fill:url(#radial-gradient);}.cls-2{fill:#fff;}.cls-3{fill:#f26529;}</style><radialGradient id="radial-gradient" cx="37" cy="-642.82" r="37.05" gradientTransform="matrix(1, 0, 0, -1, 0, -602.72)" gradientUnits="userSpaceOnUse"><stop offset="0" stop-color="#63bc46"/><stop offset="1" stop-color="#45b249"/></radialGradient></defs><title>ensurem-logo-white</title><g id="_Group_" data-name=" Group "><circle id="_Path_" data-name=" Path " class="cls-1" cx="37" cy="40.1" r="37"/><g id="_Group_2" data-name=" Group 2"><path id="_Compound_Path_" data-name=" Compound Path " class="cls-2" d="M61.5,48.7c-0.7,4.6-2.6,8.1-5.6,10.4S48.6,62.7,43,62.7c-6.8,0-11.9-1.9-15.3-5.6S22.6,48,22.6,41.2A24,24,0,0,1,24.1,32,18.58,18.58,0,0,1,34.7,20.9,23.45,23.45,0,0,1,43,19.4q9.45,0,14.1,5.4c3.2,3.6,4.7,8.5,4.7,14.6v4.4H33.7a11.87,11.87,0,0,0,2.5,7.7,8.88,8.88,0,0,0,7,2.8c4.3,0,6.9-1.8,7.7-5.5l10.6-.1h0ZM51.4,36.5a9.36,9.36,0,0,0-2.1-6.6c-1.4-1.5-3.5-2.3-6.4-2.3a9.86,9.86,0,0,0-3.8.7,8.69,8.69,0,0,0-2.8,1.9A11.65,11.65,0,0,0,34.6,33a10.39,10.39,0,0,0-.7,3.5H51.4Z"/></g></g><g id="_Group_3" data-name=" Group 3"><g id="_Group_4" data-name=" Group 4"><path id="_Compound_Path_2" data-name=" Compound Path 2" class="cls-2" d="M135.2,49.5a14.34,14.34,0,0,1-5.2,8.9c-2.8,2.3-6.9,3.5-12.1,3.5-6,0-10.7-2-14.1-5.8s-5-9.3-5-16.1a29.82,29.82,0,0,1,1.4-9.8,20.45,20.45,0,0,1,4-7.2,16.4,16.4,0,0,1,6-4.4,19.94,19.94,0,0,1,7.7-1.5,19.51,19.51,0,0,1,8.3,1.6,15.86,15.86,0,0,1,5.6,4.3,15.67,15.67,0,0,1,3.1,6.5,31.54,31.54,0,0,1,1,8.1v3H103.5a25.17,25.17,0,0,0,.9,6.7,16.59,16.59,0,0,0,2.7,5.5,12.45,12.45,0,0,0,4.5,3.7,13.31,13.31,0,0,0,6.2,1.3,24.83,24.83,0,0,0,5.4-.6,9.93,9.93,0,0,0,3.6-1.7,7.81,7.81,0,0,0,2.4-2.7,20.25,20.25,0,0,0,1.4-3.4h4.6v0.1Zm-4.1-12.9a27,27,0,0,0-.7-6.3,12.3,12.3,0,0,0-2.3-4.9,10.65,10.65,0,0,0-4.1-3.2,13.64,13.64,0,0,0-6-1.1,12.81,12.81,0,0,0-9.8,3.8c-2.5,2.6-3.9,6.5-4.4,11.8l27.3-.1h0Z"/><path id="_Compound_Path_3" data-name=" Compound Path 3" class="cls-2" d="M145.9,18.5h4.7v6.9a24.46,24.46,0,0,1,7.3-6.3,18.36,18.36,0,0,1,8.3-1.9c4.8,0,8.3,1.3,10.6,4s3.4,6.5,3.4,11.4v28h-4.8V33.8c0-4.4-.8-7.6-2.4-9.5s-4.1-2.9-7.5-2.9a15.38,15.38,0,0,0-5.2.9,13.81,13.81,0,0,0-4.9,3,15.77,15.77,0,0,0-3.7,4.4,13.23,13.23,0,0,0-1.2,6.2V60.6h-4.7l0.1-42.1h0Z"/><path id="_Compound_Path_4" data-name=" Compound Path 4" class="cls-2" d="M194,48.9q0.9,4.95,4.2,6.9c2.2,1.4,5.3,2,9.3,2s7-.8,8.7-2.3a7.23,7.23,0,0,0,2.5-5.7,12.41,12.41,0,0,0-.3-2.7,4.78,4.78,0,0,0-1.3-2.3,8,8,0,0,0-2.7-1.8,18.77,18.77,0,0,0-4.5-1.2l-5.1-.8a43.36,43.36,0,0,1-6-1.4,15.67,15.67,0,0,1-4.5-2.2,8.85,8.85,0,0,1-2.8-3.3,10.66,10.66,0,0,1-.9-4.9,10.84,10.84,0,0,1,1.2-5,11.25,11.25,0,0,1,3.4-3.8,15.18,15.18,0,0,1,5-2.3,21.54,21.54,0,0,1,6.2-.8,21.92,21.92,0,0,1,7.2.9,15.82,15.82,0,0,1,4.7,2.3,10.52,10.52,0,0,1,2.9,3.4,20.5,20.5,0,0,1,1.6,4.1l-4.3.9a24.08,24.08,0,0,0-1.5-3.3,10,10,0,0,0-2.2-2.4,8.06,8.06,0,0,0-3.3-1.4,24.32,24.32,0,0,0-10.4.1,9.93,9.93,0,0,0-3.6,1.7,6.34,6.34,0,0,0-1.9,2.4,7.17,7.17,0,0,0-.6,2.9,12.41,12.41,0,0,0,.3,2.7,4.65,4.65,0,0,0,1.3,2.1,9.19,9.19,0,0,0,2.7,1.6,23.73,23.73,0,0,0,4.6,1.1l6.5,1.1c4.4,0.8,7.7,2.1,9.9,4s3.3,4.8,3.3,8.6a11,11,0,0,1-1,4.7,10.15,10.15,0,0,1-3,3.8,15.65,15.65,0,0,1-5,2.5,20.49,20.49,0,0,1-6.9.9,34.19,34.19,0,0,1-7.1-.7A16.19,16.19,0,0,1,195,59a11.19,11.19,0,0,1-3.8-4,14,14,0,0,1-1.8-6l4.6-.1h0Z"/><path id="_Compound_Path_5" data-name=" Compound Path 5" class="cls-2" d="M233.3,18.5H238V45.2c0,4.4.7,7.6,2.1,9.5s3.8,2.9,7.1,2.9a14.92,14.92,0,0,0,5.1-1,16.67,16.67,0,0,0,8.4-7.3,13,13,0,0,0,1.2-6.2V18.5h4.7V60.6H262V53.7c-4.4,5.5-9.5,8.2-15.3,8.2-4.8,0-8.2-1.3-10.3-3.9s-3.1-6.4-3.1-11.5v-28h0Z"/><path id="_Compound_Path_6" data-name=" Compound Path 6" class="cls-2" d="M278.2,18.5h4.7v6.9a20.65,20.65,0,0,1,5.8-5.6,13.25,13.25,0,0,1,7-2h1.7a9.85,9.85,0,0,1,1.7.2l-0.6,4.5a12.29,12.29,0,0,0-2.7-.2,12.6,12.6,0,0,0-4.3.8,11.66,11.66,0,0,0-4.2,2.7,13.45,13.45,0,0,0-3.1,4,10.7,10.7,0,0,0-1.2,5.6V60.7h-4.7l-0.1-42.2h0Z"/><path id="_Compound_Path_7" data-name=" Compound Path 7" class="cls-2" d="M338.5,49.5a14.34,14.34,0,0,1-5.2,8.9c-2.9,2.3-6.9,3.5-12.1,3.5-6,0-10.7-2-14.1-5.8s-5-9.3-5-16.1a29.82,29.82,0,0,1,1.4-9.8,20.45,20.45,0,0,1,4-7.2,16.4,16.4,0,0,1,6-4.4,19.81,19.81,0,0,1,7.6-1.5,19.51,19.51,0,0,1,8.3,1.6A15.86,15.86,0,0,1,335,23a15.67,15.67,0,0,1,3.1,6.5,31.54,31.54,0,0,1,1,8.1v3H306.7a25.17,25.17,0,0,0,.9,6.7,16.59,16.59,0,0,0,2.7,5.5,12.45,12.45,0,0,0,4.5,3.7,13.31,13.31,0,0,0,6.2,1.3,24.83,24.83,0,0,0,5.4-.6,9.12,9.12,0,0,0,3.7-1.8,9.56,9.56,0,0,0,2.3-2.6,14.34,14.34,0,0,0,1.4-3.4l4.7,0.1h0Zm-4.2-12.9a27,27,0,0,0-.7-6.3,12.3,12.3,0,0,0-2.3-4.9,10.65,10.65,0,0,0-4.1-3.2,13.64,13.64,0,0,0-6-1.1,12.81,12.81,0,0,0-9.8,3.8c-2.5,2.6-4,6.5-4.4,11.8l27.3-.1h0Z"/><path id="_Compound_Path_8" data-name=" Compound Path 8" class="cls-2" d="M349.1,18.5h4.7v7a22.08,22.08,0,0,1,6.7-6.2,14.21,14.21,0,0,1,7.2-2,11.5,11.5,0,0,1,12,8.3,21.65,21.65,0,0,1,6.7-6.1,17.16,17.16,0,0,1,8.3-2.2c4,0,7.2,1.1,9.5,3.3s3.5,5.7,3.4,10.4V60.7h-4.7v-28a24.69,24.69,0,0,0-.5-5.4,8.22,8.22,0,0,0-1.6-3.4,5.26,5.26,0,0,0-2.8-1.8,9.72,9.72,0,0,0-3.8-.5,15.47,15.47,0,0,0-4.3.7,11.69,11.69,0,0,0-4.6,2.6,11.81,11.81,0,0,0-3.2,3.8,10.46,10.46,0,0,0-1.3,5.1v27H376V32.7q0-6.15-2.1-8.7c-1.4-1.7-3.6-2.6-6.5-2.6a10.3,10.3,0,0,0-4.6,1,18,18,0,0,0-4.3,2.9c-0.5.4-1,1-1.6,1.6a10.09,10.09,0,0,0-1.5,2.1,14.46,14.46,0,0,0-1.1,2.9,15.83,15.83,0,0,0-.5,3.8V60.6h-4.7V18.5h0Z"/></g><g id="_Group_5" data-name=" Group 5"><path id="_Compound_Path_9" data-name=" Compound Path 9" class="cls-2" d="M415.4,18.4h-3v-1h7.1v1h-3v7.7h-1.1V18.4h0Zm5.5-1h1.4l3.1,7.4,3.1-7.4h1.4v8.7h-1V18.9L425.8,26h-0.9l-3-7.1V26h-1V17.4h0Z"/></g></g><rect id="_Rectangle_" data-name=" Rectangle " class="cls-3" x="85" width="3" height="88.8"/></svg>