<?xml version="1.0" encoding="utf-8"?>
<!-- Generator: Adobe Illustrator 21.0.2, SVG Export Plug-In . SVG Version: 6.00 Build 0)  -->
<svg version="1.1" id="Layer_1" xmlns="http://www.w3.org/2000/svg" xmlns:xlink="http://www.w3.org/1999/xlink" x="0px" y="0px"
	 viewBox="0 0 88 88" style="enable-background:new 0 0 88 88;" xml:space="preserve">
<style type="text/css">
	.st0{fill:url(#_Path__1_);}
	.st1{fill:#FFFFFF;}
</style>
<title>ensurem-logo-mark</title>
<g id="_Group_">
	
		<radialGradient id="_Path__1_" cx="48.16" cy="-2451.3201" r="42.7243" gradientTransform="matrix(1 0 0 -1 -4.16 -2407.3201)" gradientUnits="userSpaceOnUse">
		<stop  offset="0" style="stop-color:#63BC46"/>
		<stop  offset="1" style="stop-color:#45B249"/>
	</radialGradient>
	<circle id="_Path_" class="st0" cx="44" cy="44" r="42.7"/>
	<g id="_Group_2">
		<path id="_Compound_Path_" class="st1" d="M72.2,53.9c-0.8,5.3-3,9.3-6.5,12c-3.5,2.6-8.4,4.2-14.8,4.2c-7.8,0-13.7-2.2-17.7-6.5
			s-5.9-10.5-5.9-18.3c-0.1-3.7,0.4-7.2,1.8-10.6c2.1-5.9,6.5-10.5,12.2-12.8c3-1.2,6.3-1.8,9.6-1.8c7.2,0,12.7,2.1,16.2,6.3
			c3.7,4.2,5.4,9.8,5.4,16.8v5.1H40.2c-0.1,3.2,0.9,6.4,2.9,8.9c2.1,2.2,5,3.5,8.1,3.2c4.9,0,7.9-2.1,8.9-6.4L72.2,53.9L72.2,53.9z
			 M60.6,39.8c0.2-2.7-0.6-5.4-2.4-7.6c-1.7-1.7-4.1-2.6-7.4-2.6c-1.5,0-3,0.2-4.4,0.8c-1.3,0.5-2.3,1.3-3.2,2.2
			c-0.8,0.9-1.5,2.1-2,3.2c-0.5,1.3-0.7,2.6-0.8,4.1C40.4,39.8,60.6,39.8,60.6,39.8z"/>
	</g>
</g>
</svg>
